<?xml version="1.0" encoding="utf-8"?>
<!-- Generated by IcoMoon.io -->
<!DOCTYPE svg PUBLIC "-//W3C//DTD SVG 1.1//EN" "http://www.w3.org/Graphics/SVG/1.1/DTD/svg11.dtd">
<svg version="1.1" xmlns="http://www.w3.org/2000/svg" xmlns:xlink="http://www.w3.org/1999/xlink" width="21" height="24" viewBox="0 0 21 24">
	<path d="M20.571 18v1.714q0 0.348-0.254 0.603t-0.603 0.254h-18.857q-0.348 0-0.603-0.254t-0.254-0.603v-1.714q0-0.348 0.254-0.603t0.603-0.254h18.857q0.348 0 0.603 0.254t0.254 0.603zM20.571 11.143v1.714q0 0.348-0.254 0.603t-0.603 0.254h-18.857q-0.348 0-0.603-0.254t-0.254-0.603v-1.714q0-0.348 0.254-0.603t0.603-0.254h18.857q0.348 0 0.603 0.254t0.254 0.603zM20.571 4.286v1.714q0 0.348-0.254 0.603t-0.603 0.254h-18.857q-0.348 0-0.603-0.254t-0.254-0.603v-1.714q0-0.348 0.254-0.603t0.603-0.254h18.857q0.348 0 0.603 0.254t0.254 0.603z" fill="#ffffff" />
</svg>
